<svg xmlns="http://www.w3.org/2000/svg" xmlns:xlink="http://www.w3.org/1999/xlink" width="41.055" height="39.471" viewBox="0 0 41.055 39.471"><defs><linearGradient id="a" x1="0.395" y1="0.156" x2="1.126" y2="-0.576" gradientUnits="objectBoundingBox"><stop offset="0" stop-color="#a7f3ce"/><stop offset="1" stop-color="#61db99"/></linearGradient><linearGradient id="b" x1="0.634" y1="-0.084" x2="0.324" y2="0.227" gradientUnits="objectBoundingBox"><stop offset="0" stop-color="#61db99" stop-opacity="0"/><stop offset="1" stop-color="#009e74"/></linearGradient><linearGradient id="c" x1="0.316" y1="0.784" x2="0.949" y2="0.15" gradientUnits="objectBoundingBox"><stop offset="0" stop-color="#62e1fb"/><stop offset="1" stop-color="#00a2f3"/></linearGradient><linearGradient id="d" x1="0.761" y1="0.176" x2="-0.265" y2="1.201" gradientUnits="objectBoundingBox"><stop offset="0" stop-color="#00a2f3" stop-opacity="0"/><stop offset="1" stop-color="#0075cd"/></linearGradient><linearGradient id="e" x1="0.758" y1="0.176" x2="-0.267" y2="1.201" xlink:href="#d"/><linearGradient id="f" x1="0.756" y1="0.176" x2="-0.27" y2="1.201" xlink:href="#d"/></defs><g transform="translate(0.001 -9.884)"><path d="M187.336,164.114a13.561,13.561,0,0,1,13.444,16.48,24.576,24.576,0,0,0-.612,5.292v3.444a.955.955,0,0,1-.955.955h-3.444a24.576,24.576,0,0,0-5.292.612,13.552,13.552,0,1,1-3.142-26.783Z" transform="translate(-160.044 -141.862)" fill="url(#a)"/><path d="M187.336,164.114a13.561,13.561,0,0,1,13.444,16.48,24.576,24.576,0,0,0-.612,5.292v3.444a.955.955,0,0,1-.955.955h-3.444a24.576,24.576,0,0,0-5.292.612,13.552,13.552,0,1,1-3.142-26.783Z" transform="translate(-160.044 -141.862)" fill="url(#b)"/><path d="M16.766,9.886A16.521,16.521,0,0,0,.387,29.963a29.942,29.942,0,0,1,.745,6.447v4.2A1.164,1.164,0,0,0,2.3,41.769H6.5a29.944,29.944,0,0,1,6.447.745A16.511,16.511,0,1,0,16.766,9.886Z" fill="url(#c)"/><path d="M81.514,195.485A2.556,2.556,0,1,0,77.9,199.1l5.516,5.516A2.556,2.556,0,0,0,87.03,201Z" transform="translate(-70.915 -169.977)" fill="url(#d)"/><circle cx="2.557" cy="2.557" r="2.557" transform="translate(6.181 24.701)" fill="#fff"/><path d="M171.7,195.485a2.555,2.555,0,1,0-3.611,3.611l5.516,5.516A2.555,2.555,0,1,0,177.22,201Z" transform="translate(-153.873 -169.977)" fill="url(#e)"/><circle cx="2.557" cy="2.557" r="2.557" transform="translate(13.413 24.701)" fill="#fff"/><path d="M261.893,195.485a2.555,2.555,0,1,0-3.611,3.611l5.516,5.516A2.555,2.555,0,1,0,267.409,201Z" transform="translate(-236.83 -169.977)" fill="url(#f)"/><circle cx="2.557" cy="2.557" r="2.557" transform="translate(20.645 24.701)" fill="#fff"/></g></svg>