<svg xmlns="http://www.w3.org/2000/svg" xmlns:xlink="http://www.w3.org/1999/xlink" width="41.734" height="39.023" viewBox="0 0 41.734 39.023"><defs><linearGradient id="a" x1="0.497" y1="-0.302" x2="0.497" y2="-0.838" gradientUnits="objectBoundingBox"><stop offset="0" stop-color="#ff4c54"/><stop offset="1" stop-color="#be3f45"/></linearGradient><linearGradient id="b" x1="0.377" y1="-0.695" x2="1.373" y2="-1.474" xlink:href="#a"/><linearGradient id="c" x1="0.394" y1="-0.695" x2="1.39" y2="-1.474" xlink:href="#a"/><linearGradient id="d" x1="0.399" y1="-0.716" x2="1.395" y2="-1.495" xlink:href="#a"/><linearGradient id="e" x1="0.407" y1="-0.716" x2="1.403" y2="-1.495" xlink:href="#a"/><linearGradient id="f" x1="0.497" y1="-0.605" x2="0.497" y2="0.65" gradientUnits="objectBoundingBox"><stop offset="0" stop-color="#be3f45" stop-opacity="0"/><stop offset="1" stop-color="#be3f45"/></linearGradient><linearGradient id="g" x1="0.498" y1="1.494" x2="0.498" y2="0.547" gradientUnits="objectBoundingBox"><stop offset="0" stop-color="#ffb92d"/><stop offset="1" stop-color="#f59500"/></linearGradient><linearGradient id="h" x1="0.596" y1="1.396" x2="-0.136" y2="2.129" xlink:href="#g"/><linearGradient id="i" x1="0.383" y1="1.782" x2="1.115" y2="1.049" gradientUnits="objectBoundingBox"><stop offset="0" stop-color="#f2f2f2"/><stop offset="1" stop-color="#c3c3c3"/></linearGradient><linearGradient id="j" x1="0.618" y1="0.812" x2="-0.524" y2="2.722" xlink:href="#f"/><linearGradient id="k" x1="1.349" y1="1.017" x2="0.1" y2="2.029" gradientUnits="objectBoundingBox"><stop offset="0" stop-color="#c3c3c3" stop-opacity="0"/><stop offset="1" stop-color="#777"/></linearGradient><linearGradient id="l" x1="0.415" y1="1.666" x2="0.604" y2="1.605" gradientUnits="objectBoundingBox"><stop offset="0" stop-color="#fff465"/><stop offset="1" stop-color="#ffe600"/></linearGradient><linearGradient id="m" x1="0.368" y1="1.396" x2="1.1" y2="2.129" xlink:href="#g"/><linearGradient id="n" x1="0.702" y1="0.849" x2="-0.455" y2="2.523" xlink:href="#f"/><linearGradient id="o" x1="0.575" y1="1.782" x2="-0.157" y2="1.049" xlink:href="#i"/><linearGradient id="p" x1="1.192" y1="1.124" x2="0.084" y2="2.167" xlink:href="#k"/><linearGradient id="q" x1="0.567" y1="1.666" x2="0.377" y2="1.605" gradientUnits="objectBoundingBox"><stop offset="0" stop-color="#ffe600"/><stop offset="1" stop-color="#fff465"/></linearGradient><linearGradient id="r" x1="0.222" y1="3.261" x2="1.29" y2="2.193" gradientUnits="objectBoundingBox"><stop offset="0" stop-color="#a7f3ce"/><stop offset="1" stop-color="#61db99"/></linearGradient><linearGradient id="s" x1="0.795" y1="3.325" x2="0.021" y2="4.097" gradientUnits="objectBoundingBox"><stop offset="0" stop-color="#61db99" stop-opacity="0"/><stop offset="1" stop-color="#009e74"/></linearGradient></defs><g transform="translate(0 -16.626)"><path d="M65.56,248.972H41.96a2.126,2.126,0,0,1-2.084-1.706L35.811,227.1h35.9l-4.062,20.16a2.126,2.126,0,0,1-2.089,1.712Z" transform="translate(-32.892 -193.323)" fill="url(#a)"/><path d="M350.343,297.742a1.334,1.334,0,0,1-1.32-1.531l1.854-12.355a1.334,1.334,0,0,1,2.637.4l-1.854,12.355a1.334,1.334,0,0,1-1.317,1.131Z" transform="translate(-320.56 -244.404)" fill="url(#b)"/><path d="M110.711,297.742a1.334,1.334,0,0,1-1.317-1.136l-1.854-12.355a1.334,1.334,0,1,1,2.637-.4l1.854,12.355a1.335,1.335,0,0,1-1.32,1.531Z" transform="translate(-98.76 -244.405)" fill="url(#c)"/><path d="M278.283,297.745h-.069a1.334,1.334,0,0,1-1.264-1.4l.632-12.355a1.333,1.333,0,0,1,2.663.136l-.632,12.355A1.333,1.333,0,0,1,278.283,297.745Z" transform="translate(-254.374 -244.407)" fill="url(#d)"/><path d="M196.545,297.744a1.333,1.333,0,0,1-1.33-1.265l-.632-12.355a1.333,1.333,0,0,1,2.663-.136l.632,12.355a1.333,1.333,0,0,1-1.264,1.4Z" transform="translate(-178.721 -244.406)" fill="url(#e)"/><path d="M36.441,230.232l18.74,18.74H65.56a2.126,2.126,0,0,0,2.084-1.706l4.062-20.16h-35.9Z" transform="translate(-32.892 -193.323)" fill="url(#f)"/><path d="M38.4,190.151H3.333A3.333,3.333,0,0,1,0,186.817H0a3.333,3.333,0,0,1,3.333-3.333H38.4a3.333,3.333,0,0,1,3.333,3.333h0a3.333,3.333,0,0,1-3.333,3.334Z" transform="translate(0 -153.257)" fill="url(#g)"/><circle cx="2.711" cy="2.711" r="2.711" transform="translate(6.733 30.849)" fill="url(#h)"/><circle cx="2.311" cy="2.311" r="2.311" transform="translate(7.133 31.249)" fill="url(#i)"/><path d="M102.931,183.484H99.972l-.523,1.06h0l-.868,1.759a1.333,1.333,0,0,0,.3,1.573l2.274,2.274H109.6Z" transform="translate(-90.42 -153.257)" fill="url(#j)"/><path d="M98.878,199.394l1.238,1.238a2.311,2.311,0,1,0-.667-4.57l-.868,1.759a1.334,1.334,0,0,0,.3,1.573Z" transform="translate(-90.42 -164.775)" fill="url(#k)"/><path d="M99.774,34.972a1.334,1.334,0,0,1-1.195-1.923l7.731-15.676a1.334,1.334,0,1,1,2.392,1.18l-7.731,15.676a1.334,1.334,0,0,1-1.2.743Z" transform="translate(-90.417 -0.003)" fill="url(#l)"/><circle cx="2.711" cy="2.711" r="2.711" transform="translate(29.578 30.849)" fill="url(#m)"/><path d="M367.589,190.123l-4.66-4.66a2.323,2.323,0,0,0-.518-.518l-1.461-1.461h-3.006l1.108,2.184.9,1.815a1.327,1.327,0,0,0,.324.418l2.25,2.25h4.647a3.368,3.368,0,0,0,.416-.028Z" transform="translate(-328.768 -153.257)" fill="url(#n)"/><circle cx="2.311" cy="2.311" r="2.311" transform="translate(29.978 31.249)" fill="url(#o)"/><path d="M375.858,198.336a2.311,2.311,0,0,0-4.316-1.15l.9,1.815a1.327,1.327,0,0,0,.324.418l1.191,1.191A2.311,2.311,0,0,0,375.858,198.336Z" transform="translate(-341.258 -164.776)" fill="url(#p)"/><path d="M295.052,34.972a1.334,1.334,0,0,0,1.2-1.923l-7.731-15.676a1.334,1.334,0,0,0-2.392,1.18l7.731,15.676A1.333,1.333,0,0,0,295.052,34.972Z" transform="translate(-262.676 -0.003)" fill="url(#q)"/><circle cx="5.613" cy="5.613" r="5.613" transform="translate(30.508 16.626)" fill="url(#r)"/><path d="M417.4,56.179l-4.416-4.518h-1.829V53.5h-1.843v1.829l4.454,4.437a5.626,5.626,0,0,0,3.634-3.587Z" transform="translate(-375.951 -32.179)" fill="url(#s)"/><path d="M414.828,53.5h-1.843V51.661h-1.829V53.5h-1.843v1.829h1.843v1.843h1.829V55.333h1.843Z" transform="translate(-375.951 -32.179)" fill="#fff"/></g></svg>