<svg xmlns="http://www.w3.org/2000/svg" xmlns:xlink="http://www.w3.org/1999/xlink" width="38.717" height="39.688" viewBox="0 0 38.717 39.688"><defs><linearGradient id="a" x1="0.315" y1="-0.224" x2="0.636" y2="1.3" gradientUnits="objectBoundingBox"><stop offset="0" stop-color="#cdec7a"/><stop offset="0.216" stop-color="#b0e995"/><stop offset="0.561" stop-color="#87e4bb"/><stop offset="0.835" stop-color="#6ee1d2"/><stop offset="1" stop-color="#65e0db"/></linearGradient><linearGradient id="b" x1="0.837" y1="0.395" x2="-0.798" y2="0.854" gradientUnits="objectBoundingBox"><stop offset="0" stop-color="#cdec7a" stop-opacity="0"/><stop offset="0.235" stop-color="#9ad57d" stop-opacity="0.235"/><stop offset="0.604" stop-color="#51b482" stop-opacity="0.604"/><stop offset="0.868" stop-color="#239f85" stop-opacity="0.867"/><stop offset="1" stop-color="#119786"/></linearGradient><linearGradient id="c" x1="0.767" y1="0.579" x2="-0.478" y2="0.262" xlink:href="#b"/><linearGradient id="d" x1="0.818" y1="0.452" x2="-0.699" y2="0.718" xlink:href="#b"/><linearGradient id="e" x1="0.816" y1="0.691" x2="0.348" y2="-0.067" xlink:href="#b"/><linearGradient id="f" x1="0.165" y1="0.175" x2="0.984" y2="0.829" gradientUnits="objectBoundingBox"><stop offset="0" stop-color="#18cefb"/><stop offset="0.297" stop-color="#2bb9f9"/><stop offset="0.734" stop-color="#42a0f7"/><stop offset="1" stop-color="#4a97f6"/></linearGradient><linearGradient id="g" x1="1.311" y1="1.311" x2="0.015" y2="0.015" gradientUnits="objectBoundingBox"><stop offset="0" stop-color="#4a97f6" stop-opacity="0"/><stop offset="1" stop-color="#0469bb"/></linearGradient><linearGradient id="h" x1="0.883" y1="0.698" x2="0.522" y2="0.467" xlink:href="#g"/><linearGradient id="i" x1="0.335" y1="0.335" x2="0.762" y2="0.762" gradientUnits="objectBoundingBox"><stop offset="0" stop-color="#ffd945"/><stop offset="0.304" stop-color="#ffcd3e"/><stop offset="0.856" stop-color="#ffad2b"/><stop offset="1" stop-color="#ffa325"/></linearGradient></defs><g transform="translate(-6.383)"><g transform="translate(6.397 22.226)"><path d="M33.6,285.771l-6.943,2.275a2.93,2.93,0,0,1-1.825,0l-6.943-2.275a2.934,2.934,0,0,0-1.8,0l-7.424,2.344a1.2,1.2,0,0,0-.816.986L6.406,301.586a1.008,1.008,0,0,0,1.314,1.167l7.45-2.571a2.95,2.95,0,0,1,1.969,0l7.6,2.732a2.945,2.945,0,0,0,2,0l7.6-2.732a2.95,2.95,0,0,1,1.969,0l7.45,2.571a1.008,1.008,0,0,0,1.314-1.167L43.636,289.1a1.2,1.2,0,0,0-.816-.986l-7.42-2.343a2.935,2.935,0,0,0-1.8,0Z" transform="translate(-6.397 -285.629)" fill="url(#a)"/><path d="M375.735,288.114l-7.424-2.344a3.015,3.015,0,0,0-.907-.141l.83,14.383a3.044,3.044,0,0,1,.994.169l7.45,2.571a1.008,1.008,0,0,0,1.314-1.167L376.551,289.1a1.2,1.2,0,0,0-.816-.986Z" transform="translate(-339.312 -285.629)" fill="url(#b)"/><path d="M256,302.913l7.6-2.732a2.876,2.876,0,0,1,.975-.169l-.83-14.383a2.859,2.859,0,0,0-.891.141l-6.943,2.275a2.931,2.931,0,0,1-.913.146v14.9a2.955,2.955,0,0,0,1-.175Z" transform="translate(-235.655 -285.629)" fill="url(#c)"/><path d="M141.5,288.191a2.929,2.929,0,0,1-.913-.146l-6.943-2.275a2.86,2.86,0,0,0-.891-.141l-.83,14.383a2.875,2.875,0,0,1,.975.169l7.6,2.732a2.956,2.956,0,0,0,1,.175Z" transform="translate(-122.156 -285.629)" fill="url(#d)"/></g><path d="M172.473,300.184l7.45,2.571a1.008,1.008,0,0,0,1.314-1.167L179.8,289.1a1.2,1.2,0,0,0-.816-.986l-7.424-2.344a2.936,2.936,0,0,0-1.8,0l-6.943,2.275a2.931,2.931,0,0,1-1.825,0l-6.943-2.275a42.112,42.112,0,0,0,4.043,5.55l9.8,9.8,2.614-.939a2.948,2.948,0,0,1,1.967,0Z" transform="translate(-136.16 -263.405)" fill="url(#e)"/><g transform="translate(13.674)"><path d="M124.055,12.068c0,6.665-8.5,18.143-12.068,18.143S99.92,18.732,99.92,12.068a12.068,12.068,0,1,1,24.136,0Z" transform="translate(-99.92)" fill="url(#f)"/><circle cx="10.387" cy="10.387" r="10.387" transform="translate(1.68 1.68)" fill="url(#g)"/><path d="M165,53.406a8.1,8.1,0,0,0-6-2.423,7.993,7.993,0,0,0-8.1,8.1,8.1,8.1,0,0,0,2.423,5.994L163,74.752c3.667-3.647,7.839-10.544,8.06-15.282Z" transform="translate(-146.936 -47.016)" fill="url(#h)"/><circle cx="8.256" cy="8.256" r="8.256" transform="translate(3.812 3.812)" fill="url(#i)"/></g></g></svg>