<svg xmlns="http://www.w3.org/2000/svg" width="56" height="56" viewBox="0 0 56 56"><g transform="translate(-134 -594)"><rect width="56" height="56" rx="28" transform="translate(134 594)" fill="#3e47f4" opacity="0.03"/><g transform="translate(-297.031 -1269.292)"><g transform="translate(449.031 1879.292)"><path d="M458.23,1899.087l-7.405,4.053a1.235,1.235,0,0,1-1.646-.492h0a1.313,1.313,0,0,1-.149-.578v-17.978c0-3.426,2.342-4.8,5.715-4.8h7.92c3.269,0,5.719,1.28,5.719,4.571v18.206a1.222,1.222,0,0,1-1.222,1.222h0a1.355,1.355,0,0,1-.594-.148l-7.456-4.057A.924.924,0,0,0,458.23,1899.087Z" transform="translate(-449.031 -1879.292)" fill="none" stroke="#f27622" stroke-linecap="round" stroke-linejoin="round" stroke-width="1.5"/><path d="M453.1,1885.837h9.115" transform="translate(-448.018 -1877.665)" fill="none" stroke="#005fad" stroke-linecap="round" stroke-linejoin="round" stroke-width="1.5" opacity="0.4" style="isolation:isolate"/></g></g></g></svg>