<svg xmlns="http://www.w3.org/2000/svg" xmlns:xlink="http://www.w3.org/1999/xlink" width="34.716" height="39.171" viewBox="0 0 34.716 39.171"><defs><linearGradient id="a" x1="0.482" y1="0.107" x2="1.309" y2="0.107" gradientUnits="objectBoundingBox"><stop offset="0" stop-color="#a7f3ce"/><stop offset="1" stop-color="#61db99"/></linearGradient><linearGradient id="b" x1="0.497" y1="-0.146" x2="0.497" y2="0.721" gradientUnits="objectBoundingBox"><stop offset="0" stop-color="#61db99" stop-opacity="0"/><stop offset="1" stop-color="#009e74"/></linearGradient><linearGradient id="c" x1="0.497" y1="-7.443" x2="0.497" y2="-8.442" xlink:href="#b"/><linearGradient id="d" x1="0.624" y1="-0.108" x2="-0.047" y2="0.759" xlink:href="#b"/><linearGradient id="e" x1="0.408" y1="1.744" x2="1.019" y2="-0.163" xlink:href="#a"/><linearGradient id="f" x1="0.248" y1="1.57" x2="1.848" y2="0.857" gradientUnits="objectBoundingBox"><stop offset="0" stop-color="#ffd945"/><stop offset="0.304" stop-color="#ffcd3e"/><stop offset="0.856" stop-color="#ffad2b"/><stop offset="1" stop-color="#ffa325"/></linearGradient><linearGradient id="g" x1="0.805" y1="0.052" x2="0.288" y2="2.231" xlink:href="#b"/><linearGradient id="h" x1="0.52" y1="1.126" x2="0.469" y2="2.347" xlink:href="#b"/><linearGradient id="i" x1="0.499" y1="4.259" x2="0.477" y2="5.163" gradientUnits="objectBoundingBox"><stop offset="0" stop-color="#be3f45" stop-opacity="0"/><stop offset="1" stop-color="#be3f45"/></linearGradient><linearGradient id="j" x1="0.398" y1="3.883" x2="1.312" y2="4.707" xlink:href="#i"/><linearGradient id="k" x1="0.481" y1="4.259" x2="0.503" y2="5.163" gradientUnits="objectBoundingBox"><stop offset="0" stop-color="#ff5d00" stop-opacity="0"/><stop offset="1" stop-color="#d54003"/></linearGradient><linearGradient id="l" x1="0.581" y1="3.883" x2="-0.334" y2="4.707" xlink:href="#i"/><linearGradient id="m" x1="0.59" y1="3.099" x2="-0.424" y2="3.251" xlink:href="#i"/></defs><g transform="translate(-29.127 -0.001)"><path d="M70.224,175.04H49.571a3,3,0,0,1-2.976-2.607l-2.916-21.91a3,3,0,0,1,2.976-3.4H73.14a3,3,0,0,1,2.976,3.4L73.2,172.434A3,3,0,0,1,70.224,175.04Z" transform="translate(-13.413 -135.869)" fill="url(#a)"/><path d="M70.224,175.04a3,3,0,0,0,2.976-2.607l2.916-21.91a3,3,0,0,0-2.976-3.4H46.655a3,3,0,0,0-2.976,3.4l.687,5.165.021.006L63.732,175.04Z" transform="translate(-13.413 -135.869)" fill="url(#b)"/><path d="M79.371,457.33l.21,1.576a3,3,0,0,0,2.976,2.607h20.654a3,3,0,0,0,2.976-2.607l.21-1.576Z" transform="translate(-46.4 -422.341)" fill="url(#c)"/><rect width="4.955" height="27.915" transform="translate(44.007 11.256)" fill="#ffca3c"/><path d="M302.127,150.527l-2.916,21.91a3,3,0,0,1-2.976,2.606h-7.849V147.128H299.15a3,3,0,0,1,2.977,3.4Z" transform="translate(-239.423 -135.872)" fill="url(#d)"/><rect width="4.955" height="4.183" transform="translate(44.007 34.988)" fill="#ffca3c"/><path d="M61.4,125.961H31.569a2.442,2.442,0,0,1-2.442-2.442v-6.23a2.442,2.442,0,0,1,2.442-2.442H61.4a2.442,2.442,0,0,1,2.442,2.442v6.23A2.442,2.442,0,0,1,61.4,125.961Z" transform="translate(0 -106.061)" fill="url(#e)"/><rect width="4.955" height="11.114" transform="translate(44.007 8.787)" fill="url(#f)"/><path d="M303.265,117.284v6.23a2.442,2.442,0,0,1-2.442,2.442H288.385V114.842h12.438a2.442,2.442,0,0,1,2.442,2.442Z" transform="translate(-239.423 -106.056)" fill="url(#g)"/><path d="M131.452,114.847H108.939q.1.58.247,1.161a2.809,2.809,0,0,0,.886,1.446l8.507,8.507h16.528a2.442,2.442,0,0,0,2.442-2.442v-2.576Z" transform="translate(-73.706 -106.061)" fill="url(#h)"/><path d="M106.288,2.152A2.846,2.846,0,0,1,110.2.243c1.153.509,2.261,1.176,3.275,1.734a13.7,13.7,0,0,1,2.266,1.577,3.251,3.251,0,0,1,0,4.992,13.691,13.691,0,0,1-2.266,1.577c-1.014.558-2.123,1.225-3.275,1.734a2.846,2.846,0,0,1-3.907-1.909,15.8,15.8,0,0,1,0-7.8Z" transform="translate(-70.807)" fill="#ffbe35"/><path d="M138.721,93.542a3.226,3.226,0,0,0,1.013-1.5c-2.87.257-7.354,1.23-9.046,4.718a2.834,2.834,0,0,0,2.491.1c1.153-.509,2.261-1.176,3.275-1.734a13.674,13.674,0,0,0,2.267-1.584Z" transform="translate(-93.791 -84.997)" fill="url(#i)"/><path d="M141.206,49.265c0,1.148.136,4.307,3.3,5.227.575-.313,1.133-.635,1.663-.927a13.7,13.7,0,0,0,2.266-1.577,3.24,3.24,0,0,0,1.151-2.831s-1.658-.9-2.394-1.252C143.212,45.978,141.206,47.65,141.206,49.265Z" transform="translate(-103.504 -43.442)" fill="url(#j)"/><path d="M271.668,2.151A2.846,2.846,0,0,0,267.761.243c-1.153.509-2.261,1.176-3.275,1.734a13.7,13.7,0,0,0-2.266,1.577,3.251,3.251,0,0,0,0,4.992,13.69,13.69,0,0,0,2.266,1.577c1.014.558,2.123,1.225,3.275,1.734a2.846,2.846,0,0,0,3.907-1.909,15.8,15.8,0,0,0,0-7.8Z" transform="translate(-214.181)" fill="#ffbe35"/><path d="M264.085,93.542a3.226,3.226,0,0,1-1.013-1.5c2.87.257,7.354,1.23,9.046,4.718a2.834,2.834,0,0,1-2.491.1c-1.153-.509-2.261-1.176-3.275-1.734a13.674,13.674,0,0,1-2.267-1.584Z" transform="translate(-216.047 -84.997)" fill="url(#k)"/><path d="M269.451,49.265c0,1.148-.136,4.307-3.3,5.227-.575-.313-1.133-.635-1.663-.927a13.7,13.7,0,0,1-2.266-1.577,3.24,3.24,0,0,1-1.151-2.831s1.658-.9,2.394-1.252C267.445,45.978,269.451,47.65,269.451,49.265Z" transform="translate(-214.184 -43.442)" fill="url(#l)"/><path d="M262.22,41.173a13.689,13.689,0,0,0,2.266,1.577c1.014.558,2.123,1.225,3.275,1.734a2.85,2.85,0,0,0,3.606-1.167l-7.443-7.443a4.462,4.462,0,0,0-.6-.543c-.406.284-.762.569-1.1.851a3.251,3.251,0,0,0,0,4.991Z" transform="translate(-214.182 -32.627)" fill="url(#m)"/><circle cx="4.435" cy="4.435" r="4.435" transform="translate(42.05 1.819)" fill="#ffbe35"/></g></svg>