<svg xmlns="http://www.w3.org/2000/svg" width="56" height="56" viewBox="0 0 56 56"><g transform="translate(-224 -594)"><rect width="56" height="56" rx="28" transform="translate(224 594)" fill="#3e47f4" opacity="0.03"/><g transform="translate(-112.235 -1269.514)"><g transform="translate(351.235 1879.514)"><path d="M358.362,1879.514H370.1a7.126,7.126,0,0,1,7.127,7.127v9.746a7.127,7.127,0,0,1-7.127,7.127H358.362a7.128,7.128,0,0,1-7.127-7.127v-9.746A7.127,7.127,0,0,1,358.362,1879.514Z" transform="translate(-351.235 -1879.514)" fill="none" stroke="#f27622" stroke-linecap="round" stroke-linejoin="round" stroke-width="1.5"/><g transform="translate(-837.5 -758.696)" opacity="0.4"><path d="M70.23,11.62H67.56A1.789,1.789,0,0,0,65.62,13.2v.131a1.786,1.786,0,0,0,1.94,1.582h.725a1.789,1.789,0,0,1,1.94,1.582h0a1.786,1.786,0,0,1-1.94,1.582H65.62" transform="translate(782.88 756.09)" fill="none" stroke="#005fad" stroke-linecap="round" stroke-miterlimit="10" stroke-width="1.5"/><line y1="2.262" transform="translate(851.221 765.448)" fill="none" stroke="#005fad" stroke-linecap="round" stroke-miterlimit="10" stroke-width="1.5"/><line y1="2.262" transform="translate(851.221 774.173)" fill="none" stroke="#005fad" stroke-linecap="round" stroke-miterlimit="10" stroke-width="1.5"/></g></g></g></g></svg>