<svg xmlns="http://www.w3.org/2000/svg" width="56" height="56" viewBox="0 0 56 56"><g transform="translate(-315 -594)"><rect width="56" height="56" rx="28" transform="translate(315 594)" fill="#3e47f4" opacity="0.03"/><g transform="translate(-15.471 -1358.256)"><g transform="translate(347.471 1968.256)"><path d="M366.822,1988.737h-9.591" transform="translate(-351.125 -1971.178)" fill="none" stroke="#005fad" stroke-linecap="round" stroke-linejoin="round" stroke-width="1.5" opacity="0.4" style="isolation:isolate"/><path d="M366.822,1984.551h-9.591" transform="translate(-351.125 -1972.444)" fill="none" stroke="#005fad" stroke-linecap="round" stroke-linejoin="round" stroke-width="1.5" opacity="0.4" style="isolation:isolate"/><path d="M360.891,1980.374h-3.66" transform="translate(-351.055 -1973.708)" fill="none" stroke="#005fad" stroke-linecap="round" stroke-linejoin="round" stroke-width="1.5" opacity="0.4" style="isolation:isolate"/><path d="M368.326,1975.267H358.311a5.537,5.537,0,0,0-5.821,6v11.983a5.541,5.541,0,0,0,5.056,5.986,5.441,5.441,0,0,0,.813.009h10.015a5.533,5.533,0,0,0,5.822-5.991v-11.983a5.54,5.54,0,0,0-5.87-6Z" transform="translate(-352.471 -1975.256)" fill="none" stroke="#f27622" stroke-linecap="round" stroke-linejoin="round" stroke-width="1.5"/></g></g></g></svg>