<svg xmlns="http://www.w3.org/2000/svg" width="218" height="161" viewBox="0 0 218 161"><g transform="translate(-82 -320)"><rect width="218" height="161" transform="translate(82 320)" fill="#e8e8e8"/><path d="M45.394,3H4.812A4.818,4.818,0,0,0,0,7.812V47.435a4.818,4.818,0,0,0,4.812,4.812H45.394a4.818,4.818,0,0,0,4.812-4.812V7.812A4.818,4.818,0,0,0,45.394,3Zm0,4.812,0,21.051-8.13-7.635a2.944,2.944,0,0,0-4.4.352l-9.57,12.393a1.687,1.687,0,0,1-1.331.641,1.639,1.639,0,0,1-.975-.314l-6.219-4.542a4.014,4.014,0,0,0-4.77.174l-5.186,4.4V7.812Z" transform="translate(165.897 372.708)" fill="#9f9f9f"/><path d="M89,70a5,5,0,1,0-5-5A5.007,5.007,0,0,0,89,70Z" transform="translate(95.351 324.838)" fill="#9f9f9f"/></g></svg>