<svg xmlns="http://www.w3.org/2000/svg" xmlns:xlink="http://www.w3.org/1999/xlink" width="66" height="66" viewBox="0 0 66 66"><defs><filter id="a" x="0" y="0" width="66" height="66" filterUnits="userSpaceOnUse"><feOffset input="SourceAlpha"/><feGaussianBlur stdDeviation="3" result="b"/><feFlood flood-opacity="0.161"/><feComposite operator="in" in2="b"/><feComposite in="SourceGraphic"/></filter></defs><g transform="translate(-422 -352)"><g transform="matrix(1, 0, 0, 1, 422, 352)" filter="url(#a)"><g transform="translate(9 9)" fill="#fff" stroke="#fff" stroke-width="1"><rect width="48" height="48" rx="24" stroke="none"/><rect x="0.5" y="0.5" width="47" height="47" rx="23.5" fill="none"/></g></g><g transform="translate(346.111 -42)"><g transform="translate(104.178 412)" fill="none" stroke="#f27622" stroke-width="3"><rect width="12.533" height="12.533" rx="6" stroke="none"/><rect x="1.5" y="1.5" width="9.533" height="9.533" rx="4.5" fill="none"/></g><g transform="translate(100 427.667)" fill="none"><path d="M5.222,0H15.667a5.222,5.222,0,0,1,5.222,5.222c0,8.106-20.889,8.106-20.889,0A5.222,5.222,0,0,1,5.222,0Z" stroke="none"/><path d="M 5.222187995910645 2.999996185302734 C 3.996868133544922 2.999996185302734 2.999998092651367 3.996866226196289 2.999998092651367 5.222187042236328 C 2.999998092651367 5.480766773223877 2.999998092651367 6.267656803131104 4.642528533935547 7.117546558380127 C 6.097217559814453 7.870246410369873 8.211908340454102 8.301937103271484 10.44437789916992 8.301937103271484 C 12.67684745788574 8.301937103271484 14.79153823852539 7.870246410369873 16.2462272644043 7.117546558380127 C 17.88875770568848 6.267656803131104 17.88875770568848 5.480766773223877 17.88875770568848 5.222187042236328 C 17.88875770568848 3.996866226196289 16.89188766479492 2.999996185302734 15.6665678024292 2.999996185302734 L 5.222187995910645 2.999996185302734 M 5.222187995910645 -3.814697265625e-06 L 15.6665678024292 -3.814697265625e-06 C 18.55069732666016 -3.814697265625e-06 20.88875770568848 2.338056564331055 20.88875770568848 5.222187042236328 C 20.88875770568848 9.275351524353027 15.6665678024292 11.30193424224854 10.44437789916992 11.30193424224854 C 5.222187995910645 11.30193424224854 -1.9073486328125e-06 9.275351524353027 -1.9073486328125e-06 5.222187042236328 C -1.9073486328125e-06 2.338056564331055 2.338047027587891 -3.814697265625e-06 5.222187995910645 -3.814697265625e-06 Z" stroke="none" fill="#f27622"/></g></g></g></svg>