<svg xmlns="http://www.w3.org/2000/svg" width="25.01" height="25.003" viewBox="0 0 25.01 25.003"><g transform="translate(0.434 0.444)"><rect width="24" height="24" fill="none"/><path d="M5.053,8.42c-.045.158-.384,1.4,3.118,4.316s4.144,2.382,4.144,2.382a19.535,19.535,0,0,1,2.517-2.259c1.011-.663,4.13,1.1,4.647,2.84s-.839,4.324-5.486,3.808S4.248,15.182,2.506,12.277-.85,5.759.5,2.467,3.8.015,4.377.338,7,2.939,7.11,3.741a3.353,3.353,0,0,1-.726,2.6A11.463,11.463,0,0,0,5.053,8.42Z" transform="matrix(0.978, 0.208, -0.208, 0.978, 4.505, 0.444)" fill="none" stroke="#fff" stroke-width="1.5"/></g></svg>