<svg xmlns="http://www.w3.org/2000/svg" width="48" height="48" viewBox="0 0 48 48"><g transform="translate(466 -5442)"><rect width="48" height="48" rx="24" transform="translate(-466 5442)" fill="#3e47f4" opacity="0.1"/><g transform="translate(-1294.5 4692.304)"><ellipse cx="12.114" cy="12.114" rx="12.114" ry="12.114" transform="translate(840.5 761.696)" fill="none" stroke="#3e47f4" stroke-linecap="round" stroke-miterlimit="10" stroke-width="3"/><path d="M72.4,11.62H68.472a2.63,2.63,0,0,0-2.852,2.326v.193a2.626,2.626,0,0,0,2.852,2.326h1.066A2.63,2.63,0,0,1,72.39,18.79h0a2.626,2.626,0,0,1-2.852,2.326H65.62" transform="translate(782.88 757.153)" fill="none" stroke="#3e47f4" stroke-linecap="round" stroke-miterlimit="10" stroke-width="3"/><line y1="3.325" transform="translate(852.5 765.448)" fill="none" stroke="#3e47f4" stroke-linecap="round" stroke-miterlimit="10" stroke-width="3"/><line y1="3.325" transform="translate(852.5 778.275)" fill="none" stroke="#3e47f4" stroke-linecap="round" stroke-miterlimit="10" stroke-width="3"/></g></g></svg>